<svg 
    xmlns="http://www.w3.org/2000/svg">
    

    <symbol width="33" height="22" viewBox="0 0 33 22" id="burger-icon">
        <line x1="0" y1="2" x2="33" y2="2" stroke-width="3"/>
        <line x1="0" y1="11" x2="33" y2="11" stroke-width="3"/>
        <line x1="0" y1="20" x2="33" y2="20" stroke-width="3"/>
    </symbol>

   

    

   
    <symbol viewBox="0 0 43 41" id="maintenance-icon">
        <path d="M23.0957 0H3.7793C1.69539 0 0 1.61654 0 3.60352V9.60938H18.8965L23.0957 0ZM6.29883 6.00586C5.6031 6.00586 5.03906 5.46805 5.03906 4.80469C5.03906 4.14132 5.6031 3.60352 6.29883 3.60352C6.99455 3.60352 7.55859 4.14132 7.55859 4.80469C7.55859 5.46805 6.99455 6.00586 6.29883 6.00586ZM11.3379 6.00586C10.6422 6.00586 10.0781 5.46805 10.0781 4.80469C10.0781 4.14132 10.6422 3.60352 11.3379 3.60352C12.0336 3.60352 12.5977 4.14132 12.5977 4.80469C12.5977 5.46805 12.0336 6.00586 11.3379 6.00586ZM16.377 6.00586C15.6812 6.00586 15.1172 5.46805 15.1172 4.80469C15.1172 4.14132 15.6812 3.60352 16.377 3.60352C17.0727 3.60352 17.6367 4.14132 17.6367 4.80469C17.6367 5.46805 17.0727 6.00586 16.377 6.00586Z" />
        <path d="M25.2794 18.8879V23.3027C25.2794 23.9661 24.7153 24.5039 24.0196 24.5039H18.9805C18.2847 24.5039 17.7207 23.9661 17.7207 23.3027V18.8879C16.1653 20.0025 15.2012 21.7688 15.2012 23.6846C15.2012 25.9713 16.5426 28.028 18.7018 29.0523C19.1298 29.2553 19.4004 29.6718 19.4004 30.1277V41H23.5996V30.1277C23.5996 29.6719 23.8702 29.2553 24.2982 29.0523C26.4574 28.0281 27.7988 25.9713 27.7988 23.6846C27.7988 21.7687 26.8348 20.0025 25.2794 18.8879Z" />
        <path d="M39.2207 0H25.8252L20.8992 11.2726C20.7036 11.7202 20.2449 12.0117 19.7363 12.0117H0V37.3965C0 39.3835 1.69539 41 3.7793 41H16.8809V30.8344C14.2719 29.3099 12.6816 26.6344 12.6816 23.6847C12.6816 20.1341 15.044 16.9511 18.56 15.7643C18.9456 15.634 19.3734 15.6904 19.7076 15.9157C20.0416 16.1407 20.2402 16.5064 20.2402 16.8965V22.1016H22.7598V16.8965C22.7598 16.5064 22.9585 16.1407 23.2926 15.9156C23.6266 15.6904 24.0546 15.634 24.44 15.7642C27.956 16.9511 30.3184 20.134 30.3184 23.6846C30.3184 26.6343 28.7281 29.3099 26.1191 30.8344V41H39.2207C41.3046 41 43 39.3835 43 37.3965V3.60352C43 1.61654 41.3046 0 39.2207 0ZM9.6582 18.0176H6.29883C5.6031 18.0176 5.03906 17.4798 5.03906 16.8164C5.03906 16.153 5.6031 15.6152 6.29883 15.6152H9.6582C10.3539 15.6152 10.918 16.153 10.918 16.8164C10.918 17.4798 10.3539 18.0176 9.6582 18.0176Z" />
    </symbol>

    <symbol viewBox="0 0 44 35" id="testing-icon">
        <path d="M40.1328 0H3.86719C1.73473 0 0 1.65588 0 3.69141V28.4648C0 30.5004 1.73473 32.1562 3.86719 32.1562H15.4688V34.6172H28.4453V32.1562H40.1328C42.2653 32.1562 44 30.5004 44 28.4648V3.69141C44 1.65588 42.2653 0 40.1328 0ZM15.0911 21.8699L9.93489 26.7918C9.43138 27.2724 8.61558 27.2724 8.11207 26.7918L5.53395 24.3309C5.03035 23.8503 5.03035 23.0716 5.53395 22.591C6.03745 22.1104 6.85326 22.1104 7.35677 22.591L9.02344 24.1819L13.2683 20.13C13.7718 19.6494 14.5876 19.6494 15.0911 20.13C15.5946 20.6106 15.5946 21.3893 15.0911 21.8699ZM15.0911 14.4871L9.93489 19.409C9.43138 19.8896 8.61558 19.8896 8.11207 19.409L5.53395 16.9481C5.03035 16.4674 5.03035 15.6888 5.53395 15.2082C6.03745 14.7276 6.85326 14.7276 7.35677 15.2082L9.02344 16.7991L13.2683 12.7472C13.7718 12.2665 14.5876 12.2665 15.0911 12.7472C15.5946 13.2278 15.5946 14.0065 15.0911 14.4871ZM15.0911 7.10432L9.93489 12.0262C9.43138 12.5068 8.61558 12.5068 8.11207 12.0262L5.53395 9.56525C5.03035 9.08463 5.03035 8.30599 5.53395 7.82537C6.03745 7.34475 6.85326 7.34475 7.35677 7.82537L9.02344 9.41628L13.2683 5.36435C13.7718 4.88373 14.5876 4.88373 15.0911 5.36435C15.5946 5.84497 15.5946 6.62369 15.0911 7.10432ZM37.5547 24.6914H19.3359C18.6234 24.6914 18.0469 24.1411 18.0469 23.4609C18.0469 22.7808 18.6234 22.2305 19.3359 22.2305H37.5547C38.2672 22.2305 38.8438 22.7808 38.8438 23.4609C38.8438 24.1411 38.2672 24.6914 37.5547 24.6914ZM37.5547 17.3086H19.3359C18.6234 17.3086 18.0469 16.7582 18.0469 16.0781C18.0469 15.398 18.6234 14.8477 19.3359 14.8477H37.5547C38.2672 14.8477 38.8438 15.398 38.8438 16.0781C38.8438 16.7582 38.2672 17.3086 37.5547 17.3086ZM37.5547 9.92578H19.3359C18.6234 9.92578 18.0469 9.37543 18.0469 8.69531C18.0469 8.01519 18.6234 7.46484 19.3359 7.46484H37.5547C38.2672 7.46484 38.8438 8.01519 38.8438 8.69531C38.8438 9.37543 38.2672 9.92578 37.5547 9.92578Z" />
    </symbol>

    <symbol viewBox="0 0 42 36" id="integration-icon">
        <path d="M16.0781 12.7266H27.1523V1.05469C27.1523 0.4725 26.6011 0 25.9219 0H1.23047C0.55125 0 0 0.4725 0 1.05469V22.2188C0 22.8009 0.55125 23.2734 1.23047 23.2734H14.8477V13.7812C14.8477 13.1991 15.3989 12.7266 16.0781 12.7266Z" />
        <path d="M40.7695 12.7266H27.1523V22.2188C27.1523 22.8009 26.6011 23.2734 25.9219 23.2734H14.8477V34.9453C14.8477 35.5275 15.3989 36 16.0781 36H40.7695C41.4487 36 42 35.5275 42 34.9453V13.7813C42 13.1991 41.4487 12.7266 40.7695 12.7266Z" />
    </symbol>

    <symbol viewBox="0 0 36 23" id="arrow-icon">
        <path d="M35.3842 11.6216L24.2588 22.0287C23.969 22.2997 23.4997 22.2997 23.21 22.0287C22.9202 21.7576 22.9202 21.3186 23.21 21.0476L33.0694 11.8249L0.741723 11.8249C0.331749 11.8249 1.00162e-06 11.5146 1.03746e-06 11.1311C1.07331e-06 10.7476 0.331749 10.4372 0.741723 10.4372L33.0694 10.4372L23.21 1.2146C22.9202 0.94356 22.9202 0.504515 23.21 0.233542C23.3548 0.0980559 23.5446 0.0302801 23.7344 0.0302801C23.9242 0.0302801 24.1139 0.0980559 24.2588 0.233542L35.3843 10.6406C35.674 10.9115 35.674 11.3506 35.3842 11.6216Z" />
    </symbol>

    <symbol viewBox="0 0 25 24" id="linkedin-icon">
        <path d="M21.3379 0H3.66211C1.64299 0 0 1.55171 0 3.45866V20.1525C0 22.0594 1.64299 23.6111 3.66211 23.6111H21.3379C23.357 23.6111 25 22.0594 25 20.1525V3.45866C25 1.55171 23.357 0 21.3379 0ZM8.83789 18.7229H5.9082V9.03863H8.83789V18.7229ZM8.83789 7.65516H5.9082V4.88824H8.83789V7.65516ZM19.0918 18.7229H16.1621V13.189C16.1621 12.4263 15.5048 11.8056 14.6973 11.8056C13.8897 11.8056 13.2324 12.4263 13.2324 13.189V18.7229H10.3027V9.03863H13.2324V9.56013C13.9999 9.33478 14.4985 9.03863 15.4297 9.03863C17.4166 9.04061 19.0918 10.724 19.0918 12.7135V18.7229Z"/>
    </symbol>

    <symbol viewBox="0 0 25 24" id="facebook-icon">
        <path d="M21.632 0H3.36981C1.50931 0 0.00100708 1.42445 0.00100708 3.18164V20.4293C0.00100708 22.1865 1.50925 23.611 3.36981 23.611H12.3766L12.392 15.1737H10.071C9.7694 15.1737 9.52459 14.9434 9.52343 14.6585L9.5123 11.9388C9.51113 11.6524 9.75668 11.4196 10.06 11.4196H12.3767V8.7917C12.3767 5.74203 14.3488 4.08147 17.2293 4.08147H19.593C19.8954 4.08147 20.1407 4.31302 20.1407 4.5987V6.89195C20.1407 7.17751 19.8956 7.40901 19.5933 7.40919L18.1427 7.40982C16.5762 7.40982 16.2729 8.11286 16.2729 9.14461V11.4197H19.7151C20.0431 11.4197 20.2975 11.6902 20.2589 11.9978L19.9176 14.7175C19.8849 14.9777 19.6512 15.1738 19.3738 15.1738H16.2882L16.2729 23.6111H21.6321C23.4926 23.6111 25.0008 22.1867 25.0008 20.4295V3.18164C25.0008 1.42445 23.4925 0 21.632 0Z" />
    </symbol>

    <symbol viewBox="0 0 25 24" id="instagram-icon">
        <path d="M21.3379 0H3.66211C1.64299 0 0 1.55171 0 3.45866V20.1525C0 22.0594 1.64299 23.6111 3.66211 23.6111H21.3379C23.357 23.6111 25 22.0594 25 20.1525V3.45866C25 1.55171 23.357 0 21.3379 0ZM12.5488 17.985C8.91399 17.985 5.95703 15.1923 5.95703 11.7594C5.95703 8.32654 8.91399 5.53385 12.5488 5.53385C16.1837 5.53385 19.1406 8.32654 19.1406 11.7594C19.1406 15.1923 16.1837 17.985 12.5488 17.985ZM19.873 6.91732C18.6615 6.91732 17.6758 5.98636 17.6758 4.84212C17.6758 3.69788 18.6615 2.76693 19.873 2.76693C21.0846 2.76693 22.0703 3.69788 22.0703 4.84212C22.0703 5.98636 21.0846 6.91732 19.873 6.91732Z"/>
        <path d="M19.873 4.15039C19.4689 4.15039 19.1406 4.46041 19.1406 4.84212C19.1406 5.22384 19.4689 5.53385 19.873 5.53385C20.2772 5.53385 20.6055 5.22384 20.6055 4.84212C20.6055 4.46041 20.2772 4.15039 19.873 4.15039Z"/>
        <path d="M12.5488 6.91748C9.72214 6.91748 7.42188 9.08995 7.42188 11.7596C7.42188 14.4293 9.72214 16.6017 12.5488 16.6017C15.3755 16.6017 17.6758 14.4293 17.6758 11.7596C17.6758 9.08995 15.3755 6.91748 12.5488 6.91748Z"/>
    </symbol>

    <symbol viewBox="0 0 25 22" id="cross-icon">
        <line x1="0" y1="0" x2="25" y2="22" stroke-width="3"/>
        <line x1="0" y1="22" x2="25" y2="0" stroke-width="3"/>
    </symbol>
    <symbol id="icon-burger" viewBox="0 0 24 24">
    <rect x="3" y="6" width="18" height="2" rx="1" fill="currentColor"/>
    <rect x="3" y="11" width="18" height="2" rx="1" fill="currentColor"/>
    <rect x="3" y="16" width="18" height="2" rx="1" fill="currentColor"/>
  </symbol>

  <symbol id="icon-close" viewBox="0 0 24 24">
    <line x1="4.5" y1="4.5" x2="19.5" y2="19.5" stroke="currentColor" stroke-width="2" stroke-linecap="round"/>
    <line x1="19.5" y1="4.5" x2="4.5" y2="19.5" stroke="currentColor" stroke-width="2" stroke-linecap="round"/>
  </symbol>
</svg>






<svg xmlns="http://www.w3.org/2000/svg" style="display: none;">
  <!-- Иконка: бургер -->
  

  <!-- Иконка: крестик -->
  
</svg>
